<svg xmlns="http://www.w3.org/2000/svg" viewBox="0 0 232.28 90.83"><defs><style>.cls-1{fill:#456c33;}.cls-2{fill:#88c057;}.cls-3{fill:#65b045;}.cls-4{fill:#a9d26b;}.cls-5{fill:#f16a22;}.cls-6{fill:#ed8f22;}.cls-7{fill:#dd7126;}.cls-8{fill:#649c42;}</style></defs><g id="Layer_2" data-name="Layer 2"><g id="Layer_1-2" data-name="Layer 1"><path class="cls-1" d="M17.29,51.05a1.22,1.22,0,0,1-1,.44l-1.08-.15c-1.82-.09-3.46-.14-4.89-.14a7.66,7.66,0,0,0-3.82.93A4.43,4.43,0,0,0,4.33,55a7,7,0,0,0,0,3.75,6.08,6.08,0,0,0,3,3.71,12.16,12.16,0,0,0,5.07,1.47,10.15,10.15,0,0,0,4-.36,10.73,10.73,0,0,0,3.49-1.76,10,10,0,0,0,2.55-2.92,9.44,9.44,0,0,0,1.23-3.74,5.68,5.68,0,0,0-.44-3.06,13.62,13.62,0,0,0-1.69-3,16.24,16.24,0,0,0-2.34-2.56c-.86-.77-1.65-1.41-2.37-1.94-1.83-1.44-3.6-2.8-5.33-4.07S8.1,38,6.42,36.73a11.22,11.22,0,0,1-3.85-5.55,13.23,13.23,0,0,1-.11-6.69A18.07,18.07,0,0,1,6.6,16.42,15.73,15.73,0,0,1,15,12a11.51,11.51,0,0,1,2.91-.25,19.3,19.3,0,0,1,3.38.36,18.4,18.4,0,0,1,3.25.93A9,9,0,0,1,27,14.48a3.91,3.91,0,0,1,.86,1.11,6.16,6.16,0,0,1,.51,1.26,6.48,6.48,0,0,1,.28,2.42,9.49,9.49,0,0,1-.5,2.62A10.77,10.77,0,0,1,27,24.31a6.84,6.84,0,0,1-1.58,1.76,1,1,0,0,0-.26.18.34.34,0,0,1-.25.11,2.88,2.88,0,0,1-.5.11.48.48,0,0,1-.43-.11,1.2,1.2,0,0,1-.37-1,1.39,1.39,0,0,1,.29-.61,2.31,2.31,0,0,0,.36-.54,13.52,13.52,0,0,1,.58-1.84,8,8,0,0,0,.5-1.83,3.06,3.06,0,0,0-1-2.78,5.92,5.92,0,0,0-2.84-1.47,11.63,11.63,0,0,0-3.35-.22,11.08,11.08,0,0,0-2.92.65A9.42,9.42,0,0,0,13,17.93a3.71,3.71,0,0,0-1.22,1.44,9.62,9.62,0,0,0-1.41,4.4,7.47,7.47,0,0,0,.79,3.56,10,10,0,0,0,2.31,2.92,29.67,29.67,0,0,0,3.17,2.41L20,34.82a23.47,23.47,0,0,1,2.77,2c.91.86,1.86,1.7,2.84,2.52A32.62,32.62,0,0,1,28.38,42a21.51,21.51,0,0,1,2.3,2.88,11.32,11.32,0,0,1,1.51,3.39,17,17,0,0,1,.18,9.21,15,15,0,0,1-4.17,6.91,17.73,17.73,0,0,1-7.27,4.07,21.32,21.32,0,0,1-9,.61,16.06,16.06,0,0,1-6.52-2.3,12.38,12.38,0,0,1-4.5-5.26A9.24,9.24,0,0,1,0,58a10.25,10.25,0,0,1,.43-3.46A9.72,9.72,0,0,1,2,51.45a8.77,8.77,0,0,1,2.52-2.27,6.71,6.71,0,0,1,2.55-.9,16.88,16.88,0,0,1,3.21-.21,14,14,0,0,1,3.27.46,11.55,11.55,0,0,1,2.85,1.16,2.37,2.37,0,0,0,.32.39l.32.33A.84.84,0,0,1,17.29,51.05Z"/><path class="cls-1" d="M44.5,54.58c.29.58.54,1.13.76,1.66a6,6,0,0,0,.83,1.44q2,3.16,5.4,1.51A14.66,14.66,0,0,0,53.4,58a19.15,19.15,0,0,0,1.76-1.44,47.27,47.27,0,0,0,4.9-5.22q2.22-2.77,4.32-5.8a6,6,0,0,1,.79-1,3.84,3.84,0,0,1,1-.47,1.39,1.39,0,0,1,.32,1.26A4.7,4.7,0,0,1,66,46.59l-2.45,4.32a46.83,46.83,0,0,1-2.66,4.18,45.45,45.45,0,0,1-3,3.6q-1.59,1.73-3.24,3.38a12.25,12.25,0,0,1-4,2.7,10.54,10.54,0,0,1-4.68.76,9.47,9.47,0,0,1-4-.9,9.92,9.92,0,0,1-2.85-2.09,10.4,10.4,0,0,1-1.91-2.85,13.49,13.49,0,0,1-1-3.24,23.52,23.52,0,0,1,.18-9.1A27.29,27.29,0,0,1,40,38.89,14.9,14.9,0,0,1,42.34,36a18.22,18.22,0,0,1,3-2.31,8.21,8.21,0,0,1,3.49-1.19,15.41,15.41,0,0,1,3.71.11,4.67,4.67,0,0,1,3,1.73A5.76,5.76,0,0,1,57,37.66a16.56,16.56,0,0,1-1.22,8.39,17.77,17.77,0,0,1-5.26,6.59,6.83,6.83,0,0,1-2.41,1.29A23.37,23.37,0,0,1,44.5,54.58Zm-.14-5.11A3.84,3.84,0,0,0,46.88,48a17.5,17.5,0,0,0,4.18-7.85,14.17,14.17,0,0,0,.18-1.55c0-.5.06-1,.1-1.54a1.05,1.05,0,0,0-.18-.62,3.5,3.5,0,0,1-.32-.54,7.51,7.51,0,0,0-2.52,2.31,23.19,23.19,0,0,0-2.2,3.63,20.25,20.25,0,0,0-1.47,4A9.47,9.47,0,0,0,44.36,49.47Z"/><path class="cls-2" d="M76.23,20.87S79.7,8.19,91.34,9.6c0,0,2.81.16,3.21,2.6s-2.16,4.35-4.75,4C87.46,15.85,83.33,16.58,76.23,20.87Z"/><path class="cls-3" d="M76.23,20.87S73.49,8.3,62.67,10.08c0,0-3.89.27-5.13,2.8a3,3,0,0,0,3.65,4C63.93,16.12,68.78,16.15,76.23,20.87Z"/><path class="cls-4" d="M91.57,10.18l.23,0a5.13,5.13,0,0,0,0-1C91.48,6.19,89.09,6,89.09,6c-9.91-1.84-13,14-13,14,.48-.42.95-.81,1.4-1.17C79.27,15.12,83.41,9.19,91.57,10.18Z"/><path class="cls-4" d="M62.67,10.08C71,8.7,74.55,15.87,75.73,19.22l.16.14S73.65,3.66,64.41,5.82A5.4,5.4,0,0,0,60,9.27a5,5,0,0,0-.27,1.59A9.38,9.38,0,0,1,62.67,10.08Z"/><path class="cls-1" d="M76.05,0C72.18.93,71.39,6.2,71.39,6.2a24.88,24.88,0,0,0,.47,3.23c2.51,3.35,3.69,8.5,4.13,10.91l.35.64c.41-1.88,1.74-7.2,4.49-11a23,23,0,0,0,.55-4C81.69-.88,76.05,0,76.05,0Z"/><path class="cls-3" d="M76.23,20.87S79.7,8.19,91.34,9.6c0,0,2.81.16,3.21,2.6s-2.16,4.35-4.75,4C87.46,15.85,83.33,16.58,76.23,20.87Z"/><path class="cls-5" d="M76,19.72c.17.53.24.85.24.85s.13-.48.42-1.24Z"/><path class="cls-6" d="M84.34,19.67a5.11,5.11,0,0,0-2.08-2.25,48.5,48.5,0,0,0-6,3.15,32.72,32.72,0,0,0-6.53-3.27A5.88,5.88,0,0,0,66.9,20C65,23.94,70,55,73.82,63.75a.89.89,0,0,0,1.7,0C79.71,54.85,86.12,23.59,84.34,19.67Z"/><path class="cls-7" d="M74.06,53.33a12.11,12.11,0,0,1-2,.53,1,1,0,0,0-.78,1,.88.88,0,0,0,1,.74A14.13,14.13,0,0,0,74.63,55a1,1,0,0,0,.35-.22.94.94,0,0,0,.23-1A.87.87,0,0,0,74.06,53.33Z"/><path class="cls-7" d="M82.32,21.12A13.16,13.16,0,0,1,76,22.17,1,1,0,0,0,75,23a.86.86,0,0,0,.81,1A14.73,14.73,0,0,0,83,22.76a.88.88,0,0,0,.27-.19.92.92,0,0,0,.21-1A.88.88,0,0,0,82.32,21.12Z"/><path class="cls-7" d="M83.32,33.66a8.32,8.32,0,0,1-5.83,1.69.87.87,0,0,1-.72-1,1,1,0,0,1,1.07-.76A6.67,6.67,0,0,0,82.55,32a.91.91,0,0,1,1-.06"/><path class="cls-7" d="M82.55,32a6.67,6.67,0,0,1-4.71,1.55,1,1,0,0,0-1.07.76.87.87,0,0,0,.72,1,8.32,8.32,0,0,0,5.83-1.69c.1-.58.2-1.15.29-1.71A.92.92,0,0,0,82.55,32Z"/><path class="cls-7" d="M80.59,47.06a6,6,0,0,1-4.3,1.3.88.88,0,0,1-.72-1,1,1,0,0,1,1.07-.76,4.1,4.1,0,0,0,2.93-1,.9.9,0,0,1,1.28.12l0,.07"/><path class="cls-7" d="M79.57,45.59a4.1,4.1,0,0,1-2.93,1,1,1,0,0,0-1.07.76.88.88,0,0,0,.72,1,6,6,0,0,0,4.3-1.3l.3-1.28s0-.05,0-.07A.9.9,0,0,0,79.57,45.59Z"/><path class="cls-1" d="M49.74,21.31s-.39,6.62,4.36,7.29,5.35,1.89,5.35,1.89.9-15.67-9.64-11.28Z"/><path class="cls-3" d="M49.74,22.05c.06,1.74.58,6,4.36,6.55,4.76.66,5.35,1.89,5.35,1.89s0-.13,0-.35C58.86,27.76,56.05,18.45,49.74,22.05Z"/><path class="cls-1" d="M49.73,21.31s.29,6.63-4.47,7.22-5.38,1.82-5.38,1.82-.67-15.69,9.81-11.14Z"/><path class="cls-3" d="M49.72,22.05c-.09,1.74-.68,6-4.46,6.48-4.77.6-5.38,1.82-5.38,1.82s0-.13,0-.35C40.51,27.62,43.47,18.36,49.72,22.05Z"/><path class="cls-3" d="M84.25,62.4q1.36-3.39,2.3-6.55,1.31-4.4,2.56-8.75c.84-2.9,1.7-5.84,2.56-8.82a22,22,0,0,0,.75-5.83,37.8,37.8,0,0,0,0-5.92c-.1-.82-.15-1.67-.24-2.47s-.14-1.53-.19-2.35-.27-1.77.16-2.58a2.22,2.22,0,0,1,1.65-1.41,2.49,2.49,0,0,1,2.09.69,6,6,0,0,1,1.66,2.52,12.67,12.67,0,0,1,.57,3.71,24.45,24.45,0,0,1-.28,3.7Q97,34.1,95.73,39.68t-3,11.13q-1,3.24-2.13,6.3c-.74,2-1.45,4.11-2.12,6.23a9.61,9.61,0,0,1-1.66,3,23.76,23.76,0,0,1-2.37,2.45,5.06,5.06,0,0,1-2.16,1,7.87,7.87,0,0,1-2.38.08,9.25,9.25,0,0,1-5-2.45A23.56,23.56,0,0,1,72,64.31a19.88,19.88,0,0,1-2.23-3.49,58.07,58.07,0,0,1-4.57-12.14A47.47,47.47,0,0,1,63.8,36c.05-1.68.08-3.34.11-5a33.72,33.72,0,0,1,.4-4.83A14,14,0,0,1,65.1,23c.38-1,.76-2.08,1.15-3.13a4.91,4.91,0,0,1,2-2.45,3,3,0,0,1,2.16-.9c.62.07,1.22.71,1.8,1.91.47.24.74,1.05.79,2.45s0,3.2,0,5.43-.11,4.79-.11,7.67a70.11,70.11,0,0,0,.62,9,64.07,64.07,0,0,0,2,9.57,38.09,38.09,0,0,0,4.07,9.25c1.05,1.73,1.89,2.66,2.52,2.78S83.43,64,84.25,62.4Z"/><path class="cls-3" d="M102.57,57.43c.29.58.54,1.13.76,1.66a6,6,0,0,0,.82,1.44,3.77,3.77,0,0,0,5.4,1.51,14,14,0,0,0,1.91-1.15,19.25,19.25,0,0,0,1.77-1.44,48.14,48.14,0,0,0,4.89-5.22q2.23-2.77,4.32-5.8a6.61,6.61,0,0,1,.79-1,4,4,0,0,1,1-.47,1.35,1.35,0,0,1,.32,1.26,4.38,4.38,0,0,1-.54,1.19l-2.44,4.32a49.3,49.3,0,0,1-2.67,4.18,43.34,43.34,0,0,1-3,3.6q-1.59,1.73-3.24,3.38a12.25,12.25,0,0,1-4,2.7,10.54,10.54,0,0,1-4.68.76,9.47,9.47,0,0,1-4-.9,10.11,10.11,0,0,1-4.75-4.94,13.08,13.08,0,0,1-1-3.24,23.52,23.52,0,0,1,.18-9.1A27.53,27.53,0,0,1,98,41.74a15,15,0,0,1,2.38-2.88,17.62,17.62,0,0,1,3-2.31,8.25,8.25,0,0,1,3.5-1.19,14.84,14.84,0,0,1,3.7.11,4.69,4.69,0,0,1,3,1.73A5.68,5.68,0,0,1,115,40.51a16.56,16.56,0,0,1-1.22,8.39,17.74,17.74,0,0,1-5.25,6.59,6.87,6.87,0,0,1-2.42,1.29A24.76,24.76,0,0,1,102.57,57.43Zm-.15-5.11a3.84,3.84,0,0,0,2.52-1.44A17.5,17.5,0,0,0,109.12,43a10.53,10.53,0,0,0,.18-1.55c0-.5.06-1,.11-1.54a1.05,1.05,0,0,0-.18-.62,3.52,3.52,0,0,1-.33-.54,7.4,7.4,0,0,0-2.51,2.31,23.19,23.19,0,0,0-2.2,3.63,20.07,20.07,0,0,0-1.48,4A9.68,9.68,0,0,0,102.42,52.32Z"/><path class="cls-3" d="M139.47,40.07l1.05-.79a5.92,5.92,0,0,1,1-.65,2.17,2.17,0,0,1,2.59,0c.67.48.84,1.32.5,2.52-.14.53-.27,1.08-.39,1.66a13,13,0,0,0-.25,1.65q-.15,3-.18,5.84c0,1.92-.06,3.84-.11,5.76a17,17,0,0,0,.22,2.37c1-.81,1.87-1.57,2.73-2.27l2.59-2q3-2.16,6.27-4.1a4.59,4.59,0,0,1,1.22-.54,1.52,1.52,0,0,1,1.37.39,1.52,1.52,0,0,1-.43,1.19,6.83,6.83,0,0,1-1,.76,75.2,75.2,0,0,0-10.08,8.42l-.65.65a4.74,4.74,0,0,0-1.55,2,6.7,6.7,0,0,0-.32,2.56c.09,1.92.13,3.83.11,5.72S144.1,75,144,76.94a21.23,21.23,0,0,1-1,5.5,17.2,17.2,0,0,1-2.59,4.94,10.37,10.37,0,0,1-1.95,2.08,5.47,5.47,0,0,1-2.7,1.3,5.11,5.11,0,0,1-2.62-.25A5.32,5.32,0,0,1,131,89a5.45,5.45,0,0,1-1.23-2.74,13.58,13.58,0,0,1-.07-5,22.36,22.36,0,0,1,1.44-4.82c.58-1.44,1.22-2.86,1.94-4.25a26.5,26.5,0,0,1,2.52-4,3.58,3.58,0,0,0,.79-2.81,13.28,13.28,0,0,1-.14-1.9c0-.65,0-1.41-.07-2.27-.24.38-.41.67-.51.86s-.19.36-.28.51c-.34.62-.65,1.25-.94,1.87a8.36,8.36,0,0,1-1.08,1.73,5.87,5.87,0,0,1-1.87,1.58,5.3,5.3,0,0,1-2.2.65A5.6,5.6,0,0,1,127,68a5.28,5.28,0,0,1-2.09-1.33,11.35,11.35,0,0,1-1.44-1.58,7.21,7.21,0,0,1-1-1.87,23.46,23.46,0,0,1-1.15-4.43,14.59,14.59,0,0,1,0-4.57c.19-1,.35-1.91.47-2.85a24.83,24.83,0,0,1,.54-2.84,19.53,19.53,0,0,1,5.25-9,8.15,8.15,0,0,1,2.88-1.91,7.81,7.81,0,0,1,3.21-.54,7.64,7.64,0,0,1,3.13.83A8.29,8.29,0,0,1,139.47,40.07ZM130,62.75l.43-.32a3.23,3.23,0,0,0,.29-.25,20.09,20.09,0,0,0,2.92-3.89A41.16,41.16,0,0,0,135.8,54a3.73,3.73,0,0,0,.29-1.51,32.33,32.33,0,0,1,.39-5A18.2,18.2,0,0,1,138,42.66c-1.2-1.48-2.45-1.75-3.74-.79a5.27,5.27,0,0,0-.69.65c-.21.24-.42.48-.61.72a23.42,23.42,0,0,0-3.31,7.09,26.07,26.07,0,0,0-.87,7.81c.1.77.18,1.54.25,2.31A4.33,4.33,0,0,0,130,62.75Zm3.6,22.54a1.87,1.87,0,0,0,1.58-.87l.72-1.44a12.55,12.55,0,0,0,1-4.53,21.92,21.92,0,0,0-.36-4.68c-.48.91-1,1.8-1.55,2.66a14.85,14.85,0,0,0-1.36,2.7,9.41,9.41,0,0,0-.62,2.92A8.13,8.13,0,0,0,133.64,85.29Z"/><path class="cls-3" d="M166.44,61.25c-.43.62-.86,1.23-1.26,1.83s-.83,1.17-1.26,1.7A11.12,11.12,0,0,1,162.84,66c-.39.36-.77.74-1.15,1.12a5.51,5.51,0,0,1-7.64-.43,9.84,9.84,0,0,1-2.19-3.28,11.86,11.86,0,0,1-.9-3.78,24.08,24.08,0,0,1,8.71-21.38A10.33,10.33,0,0,1,163.85,36a7.72,7.72,0,0,1,4.75.36A11.27,11.27,0,0,1,170,37l1.48.83c.33-.19.68-.41,1-.65s.73-.48,1.12-.72a2.63,2.63,0,0,1,2.77-.14,2.58,2.58,0,0,1,1,2.59,41.57,41.57,0,0,1-.86,6.12c-.43,2.35-.87,4.7-1.3,7.05a45.28,45.28,0,0,0-.72,7.2,7.24,7.24,0,0,0,.43,2.52,1.64,1.64,0,0,0,1,1.12,1.42,1.42,0,0,0,1.37-.54,26.77,26.77,0,0,0,3.82-6c1-2.16,1.94-4.32,2.8-6.48q.44-1.08.72-2c.19-.63.46-.89.8-.79a1.41,1.41,0,0,1,.9,1,3.34,3.34,0,0,1,0,1.3c-.19.82-.39,1.66-.58,2.52a21.39,21.39,0,0,1-.72,2.52,41.92,41.92,0,0,1-2.41,5.36,30.86,30.86,0,0,1-3.27,4.94q-2.52,3.16-5.66,3.09c-2.08-.05-3.9-1.17-5.43-3.38a6.69,6.69,0,0,1-.94-1.55A16.85,16.85,0,0,0,166.44,61.25Zm3.74-21.31a2.91,2.91,0,0,0-1.87-.33,4.41,4.41,0,0,0-1.44.61c-.43.34-.84.68-1.22,1s-.77.7-1.16,1.08a27.88,27.88,0,0,0-4,6.63,31.94,31.94,0,0,0-2.16,7.41c-.1.91-.15,1.8-.18,2.67a7.57,7.57,0,0,0,.4,2.59c.09.43.2.89.32,1.37a1.24,1.24,0,0,0,1,.93,1.39,1.39,0,0,0,1.44-.36,6.34,6.34,0,0,0,.94-1.15c.67-1.2,1.32-2.4,1.94-3.6s1.25-2.42,1.88-3.67a1.56,1.56,0,0,0,.21-.79,5.1,5.1,0,0,1,.07-.87c.15-1,.28-1.94.4-2.95s.28-2,.47-3a21.1,21.1,0,0,1,1.08-3.89A19.93,19.93,0,0,1,170.18,39.94Z"/><path class="cls-3" d="M189.91,54.55a4,4,0,0,1,.36-.72,6,6,0,0,0,.36-.72q1.73-3.68,3.56-7.2a32.93,32.93,0,0,1,4.58-6.62c.33-.39.67-.76,1-1.12s.7-.71,1.08-1a3.41,3.41,0,0,1,3-.9,3.9,3.9,0,0,1,2.44,2,7.48,7.48,0,0,1,1.23,4.61c0,1.68-.14,3.33-.25,5s-.23,3.29-.33,5c-.1,1.39-.19,2.76-.29,4.11s-.19,2.71-.28,4.1a1.07,1.07,0,0,0,1.08-.22L208,60q1.44-1.86,2.81-3.78l2.74-3.85c.43-.62.83-1.25,1.22-1.87s.79-1.25,1.22-1.87a10,10,0,0,0,.69-.76,3.25,3.25,0,0,1,.75-.68,1,1,0,0,1,.62-.11,1.26,1.26,0,0,1,.61.18,1.36,1.36,0,0,1,.25.54.72.72,0,0,1,0,.61,28.48,28.48,0,0,1-1.51,3l-3.24,5.79-3.24,5.8-.83,1.4a7.18,7.18,0,0,1-.9,1.26,5.22,5.22,0,0,1-1.87,1.62,4.85,4.85,0,0,1-2.19.54,4.65,4.65,0,0,1-2.2-.57,4.8,4.8,0,0,1-1.8-1.73,8.57,8.57,0,0,1-1.37-3.06,24.13,24.13,0,0,1-.5-3.35,35.08,35.08,0,0,1,.14-5.51c.19-1.85.46-3.68.79-5.51.15-.86.28-1.74.4-2.62a20.83,20.83,0,0,0,.18-2.78c-.24.34-.48.66-.72,1s-.48.66-.72,1a52.34,52.34,0,0,0-4,7c-1.16,2.42-2.23,4.88-3.24,7.38q-.8,1.88-1.62,3.78c-.55,1.27-1.12,2.53-1.69,3.78a2.5,2.5,0,0,1-1.8,1.48,3.07,3.07,0,0,1-2.38-.54,5.28,5.28,0,0,1-2.16-4.11c-.1-1.25-.18-2.49-.25-3.74s-.09-2.5,0-3.75c.05-1.63.14-3.25.29-4.86s.26-3.25.36-4.93a21.51,21.51,0,0,1,.9-4.57,11.67,11.67,0,0,1,2.27-4.07,6.69,6.69,0,0,1,2.3-1.8c1.15-.53,1.9-.12,2.23,1.23a7.46,7.46,0,0,1,.15,2c-.1,1.15-.18,2.31-.25,3.46s-.16,2.3-.26,3.45c-.09,1.44-.18,2.87-.25,4.29s-.15,2.82-.25,4.21A.8.8,0,0,0,189.91,54.55Z"/><path class="cls-2" d="M222.39,32.27a2.63,2.63,0,0,0-.93-2.52,5.89,5.89,0,0,0,1.09-2.47,6.12,6.12,0,0,0-5-7.11,6.24,6.24,0,0,0-2.55,0,5.07,5.07,0,0,0-8.41-1.07,5.88,5.88,0,0,0-3.08-1.63A5.75,5.75,0,0,0,196.81,22a5.4,5.4,0,0,0-.08.69,5.64,5.64,0,0,0-3.24,9.63A4.81,4.81,0,0,0,192,35a5,5,0,0,0,4,5.78,5.07,5.07,0,0,0,3.21-.45A6.23,6.23,0,0,0,209.36,42a4.23,4.23,0,0,0,8.17-2.09,4.13,4.13,0,0,0,3-5.6A2.64,2.64,0,0,0,222.39,32.27Z"/><path class="cls-8" d="M198.08,40.75a4.91,4.91,0,0,1-2.06.06A5,5,0,0,1,192,35a4.81,4.81,0,0,1,1.49-2.67,5.66,5.66,0,0,1-1.6-5.07A5.51,5.51,0,0,1,193,24.84a4.37,4.37,0,0,0-5.29-.37,4.63,4.63,0,0,0-.42.32,4.34,4.34,0,0,0-5-.12,4.15,4.15,0,0,0-1.87,3.47,3.83,3.83,0,0,0-2.22.63,3.63,3.63,0,0,0-1,5.1,3.71,3.71,0,0,0,2,1.42,4.43,4.43,0,0,0,.52,4.12,4.65,4.65,0,0,0,4,2,3.06,3.06,0,0,0,.25,3.08,3.2,3.2,0,0,0,4.39.83,3.3,3.3,0,0,0,.8-.78,3.2,3.2,0,0,0,3.49,0,3.06,3.06,0,0,0,1.11-1.32,2,2,0,0,0,2.05-.11,2,2,0,0,0,.86-1.8A4.75,4.75,0,0,0,198.08,40.75Z"/><path class="cls-8" d="M231.52,39.65a4.47,4.47,0,0,0-.32-.41,4.2,4.2,0,0,0,.09-4.92,4.38,4.38,0,0,0-3.55-1.85,3.69,3.69,0,0,0-.65-2.19,3.79,3.79,0,0,0-5.19-1l-.31.25a1.37,1.37,0,0,1-.13.2,2.62,2.62,0,0,1-.9,4.55,4.13,4.13,0,0,1-3,5.6,4.44,4.44,0,0,1,0,1.5,4.22,4.22,0,0,1-4.95,3.31,4.36,4.36,0,0,1-1.48-.58,2.12,2.12,0,0,0,.11.21,3.19,3.19,0,0,0,1.35,1.1,1.94,1.94,0,0,0,.12,2,2,2,0,0,0,1.84.85,4.5,4.5,0,0,0,.75,1.87A4.61,4.61,0,0,0,223,50a3.77,3.77,0,0,0,3.36-.41,3.63,3.63,0,0,0,1.6-3.38,4.26,4.26,0,0,0,2.48-.72A4.18,4.18,0,0,0,231.52,39.65Z"/><path class="cls-8" d="M200.82,29.7a.93.93,0,0,1-.35-.13,4.9,4.9,0,1,1,5.21-8.31A1,1,0,0,1,204.61,23a2.9,2.9,0,1,0-3.08,4.92,1,1,0,0,1,.32,1.38A1,1,0,0,1,200.82,29.7Z"/><path class="cls-2" d="M224.05,44.75a5.08,5.08,0,0,1-1.7-.67,4.84,4.84,0,0,1-2.17-3,1,1,0,0,1,1.95-.45,2.9,2.9,0,0,0,1.29,1.81,2.9,2.9,0,0,0,4.36-3.11,1,1,0,0,1,1.95-.45,4.91,4.91,0,0,1-.62,3.7,5,5,0,0,1-5.06,2.22Z"/><path class="cls-8" d="M211.05,39.78a4.92,4.92,0,0,1-3.74-3.24,1,1,0,0,1,1.89-.65,2.85,2.85,0,0,0,1.47,1.67,2.92,2.92,0,0,0,2.21.15A2.92,2.92,0,0,0,214.7,34a1,1,0,0,1,.62-1.27,1,1,0,0,1,1.27.63,4.9,4.9,0,0,1-3.06,6.22A4.91,4.91,0,0,1,211.05,39.78Z"/><path class="cls-8" d="M208.6,33.82a4.89,4.89,0,0,1-3-7.73,1,1,0,1,1,1.61,1.19,2.9,2.9,0,1,0,4.66,3.45,1,1,0,0,1,1.61,1.19A4.91,4.91,0,0,1,208.6,33.82Z"/><path class="cls-8" d="M200.09,37.93a5.09,5.09,0,0,1-1.85-.77A4.92,4.92,0,0,1,197,30.34a1,1,0,0,1,1.39-.26,1,1,0,0,1,.26,1.39A2.91,2.91,0,0,0,201.54,36a2.93,2.93,0,0,0,1.86-1.22,1,1,0,1,1,1.65,1.13,5,5,0,0,1-5,2.06Z"/><path class="cls-8" d="M213.05,29.27l-.47-.11a4.88,4.88,0,0,1-2.93-2.35,1,1,0,1,1,1.76-1A2.89,2.89,0,0,0,215.35,27a2.91,2.91,0,0,0,1.14-3.94,1,1,0,0,1,.39-1.36,1,1,0,0,1,1.36.4,4.89,4.89,0,0,1-1.93,6.65A4.83,4.83,0,0,1,213.05,29.27Z"/><path class="cls-2" d="M186.49,36.53a4.89,4.89,0,0,1-3.2-7.47A1,1,0,1,1,185,30.15a2.9,2.9,0,0,0,4.88,3.14,1,1,0,1,1,1.68,1.08A4.9,4.9,0,0,1,186.49,36.53Z"/></g></g></svg>