<?xml version="1.0" standalone="no"?>
<!DOCTYPE svg PUBLIC "-//W3C//DTD SVG 20010904//EN"
 "http://www.w3.org/TR/2001/REC-SVG-20010904/DTD/svg10.dtd">
<svg version="1.0" xmlns="http://www.w3.org/2000/svg"
 width="1120.000000pt" height="1120.000000pt" viewBox="0 0 1120.000000 1120.000000"
 preserveAspectRatio="xMidYMid meet">
<metadata>
Created by potrace 1.11, written by Peter Selinger 2001-2013
</metadata>
<g transform="translate(0.000000,1120.000000) scale(0.100000,-0.100000)"
fill="#000000" stroke="none">
<path d="M5270 11176 c-81 -29 -158 -72 -220 -121 -56 -45 -165 -164 -206
-227 -74 -111 -175 -331 -199 -435 -5 -22 -24 -91 -31 -118 -8 -25 -11 -175
-4 -175 3 0 5 -12 6 -27 0 -16 4 -55 7 -89 7 -57 10 -77 22 -133 3 -18 -22 3
-93 76 -104 107 -153 148 -247 209 -96 62 -208 112 -290 129 -11 3 -31 8 -45
11 -109 26 -409 24 -452 -2 -5 -3 -26 -7 -47 -9 -86 -7 -317 -89 -329 -117 -2
-5 -10 -8 -18 -8 -8 0 -14 -4 -14 -10 0 -5 -5 -10 -12 -10 -14 0 -25 -9 -118
-103 -81 -81 -120 -129 -120 -146 0 -6 -4 -11 -9 -11 -4 0 -25 -36 -45 -81
-38 -83 -76 -234 -71 -287 2 -27 -3 -33 -49 -58 -161 -87 -277 -211 -321 -343
-17 -53 -24 -178 -12 -231 21 -97 81 -200 155 -267 32 -29 158 -100 171 -97 4
1 24 -4 46 -11 51 -15 162 -11 245 10 36 9 75 18 88 20 76 16 76 16 192 31
110 13 380 3 510 -20 14 -3 41 -7 60 -10 51 -8 90 -16 135 -27 22 -5 49 -12
60 -14 72 -16 115 -30 115 -36 0 -4 -12 -15 -27 -25 -86 -55 -185 -151 -239
-231 -34 -51 -96 -175 -100 -199 -2 -10 -123 -341 -141 -384 -3 -8 -7 -17 -8
-20 -1 -3 -5 -12 -8 -20 -18 -44 -86 -259 -91 -285 -2 -16 -5 -30 -6 -30 -2 0
-7 -22 -15 -60 -3 -16 -8 -41 -10 -55 -14 -69 -30 -175 -40 -270 -2 -25 -7
-56 -9 -68 -3 -13 -8 -63 -11 -110 -4 -48 -9 -105 -11 -127 -4 -39 -9 -175
-21 -625 -13 -459 -6 -1145 11 -1250 3 -14 7 -63 11 -110 8 -104 12 -155 19
-200 2 -19 7 -60 11 -90 4 -30 9 -66 11 -80 2 -14 6 -47 10 -75 3 -27 8 -57
11 -65 3 -8 7 -28 8 -45 2 -16 8 -57 14 -90 7 -33 14 -71 16 -85 2 -14 7 -36
9 -49 3 -14 15 -70 26 -125 12 -56 26 -119 32 -141 5 -22 11 -47 13 -55 4 -20
82 -315 94 -357 5 -18 7 -33 4 -33 -3 0 -1 -6 4 -12 8 -10 30 -77 39 -118 0
-3 3 -12 6 -20 3 -8 35 -105 71 -215 36 -110 71 -213 78 -230 7 -16 13 -34 15
-40 7 -31 156 -403 203 -510 12 -27 29 -65 37 -83 8 -17 21 -49 31 -70 50
-113 216 -446 228 -459 8 -8 15 -19 15 -24 0 -33 228 -359 350 -501 129 -151
452 -455 555 -525 22 -15 42 -30 43 -35 2 -4 10 -8 18 -8 8 0 14 -4 14 -10 0
-5 6 -10 14 -10 8 0 16 -4 18 -8 9 -22 260 -133 363 -160 22 -6 63 -18 92 -25
66 -18 386 -23 463 -7 141 30 271 89 359 165 164 141 461 466 461 504 0 5 4
11 9 13 9 3 86 138 115 200 26 57 60 150 106 293 23 72 58 177 77 235 34 103
39 118 42 132 1 4 9 24 17 45 9 20 17 44 19 52 2 9 21 66 43 126 22 61 45 126
52 145 6 19 15 44 20 55 5 11 20 54 35 95 15 41 29 82 32 90 4 8 7 17 8 20 1
3 4 12 8 20 3 8 19 56 36 105 17 50 42 124 56 165 32 91 36 104 36 110 1 3 5
11 11 18 6 6 8 12 4 12 -3 0 0 17 8 38 23 63 195 598 202 627 1 6 21 71 44
145 22 74 43 144 45 154 5 21 23 83 32 106 3 8 7 22 8 30 1 8 10 40 19 70 10
30 20 66 23 80 7 34 9 43 16 60 3 8 10 35 16 60 7 25 28 106 47 180 19 74 37
142 39 151 2 9 15 66 30 125 30 125 51 214 61 264 4 19 9 40 10 45 5 19 53
240 58 265 3 14 8 39 11 55 3 17 8 37 10 45 6 22 18 92 19 113 0 9 3 17 6 17
3 0 6 8 6 18 1 14 19 112 39 212 3 14 7 39 10 55 3 17 8 41 10 55 8 36 12 59
20 110 4 25 9 54 11 65 3 11 7 36 10 55 10 66 13 80 18 98 2 9 7 37 10 62 3
25 8 56 11 70 3 14 8 41 10 60 7 48 14 90 20 120 3 14 7 46 10 71 3 25 8 56
10 69 3 13 7 42 10 65 6 45 16 112 20 135 1 8 6 40 10 70 3 30 9 69 11 85 6
32 9 57 21 170 10 89 10 554 1 620 -4 28 -10 68 -14 90 -3 22 -15 74 -25 115
-11 41 -22 82 -24 90 -16 63 -72 199 -86 210 -3 3 -12 16 -19 30 -39 74 -174
221 -241 262 -106 65 -240 78 -343 34 -44 -20 -53 -26 -111 -82 -46 -45 -88
-123 -108 -205 -16 -61 -15 -108 8 -384 2 -27 7 -88 10 -135 3 -47 7 -101 10
-120 3 -19 7 -57 10 -85 2 -27 7 -75 10 -105 3 -30 7 -84 10 -120 3 -36 7 -81
10 -100 19 -150 25 -656 11 -950 -4 -85 -9 -198 -12 -250 -7 -149 -17 -259
-30 -325 -3 -11 -7 -36 -9 -55 -8 -55 -15 -93 -21 -120 -3 -14 -7 -36 -10 -50
-3 -14 -12 -52 -20 -85 -9 -33 -17 -67 -19 -75 -2 -8 -22 -80 -45 -160 -23
-80 -43 -149 -44 -155 -1 -5 -5 -16 -9 -23 -5 -6 -6 -12 -3 -12 3 0 -4 -25
-14 -55 -10 -30 -16 -55 -13 -55 3 0 1 -6 -4 -12 -9 -11 -37 -114 -36 -128 1
-3 -3 -12 -8 -21 -4 -9 -17 -49 -28 -90 -12 -41 -37 -128 -56 -194 -35 -119
-63 -216 -70 -245 -6 -21 -62 -212 -86 -292 -11 -37 -21 -71 -21 -75 0 -5 -5
-19 -10 -33 -5 -14 -11 -33 -13 -42 -4 -16 -61 -212 -116 -398 -13 -41 -24
-78 -25 -82 -1 -5 -2 -9 -3 -10 -2 -2 -4 -12 -7 -23 -2 -11 -20 -74 -39 -140
-20 -66 -37 -127 -39 -135 -2 -8 -11 -37 -20 -65 -24 -77 -86 -288 -90 -305
-6 -24 -57 -193 -63 -210 -3 -8 -7 -20 -8 -26 -13 -58 -199 -592 -230 -661 -8
-17 -15 -37 -15 -45 0 -8 -3 -18 -7 -22 -5 -4 -8 -11 -9 -14 0 -4 -6 -20 -13
-37 -7 -16 -20 -48 -27 -70 -21 -58 -100 -201 -144 -259 -104 -141 -179 -175
-275 -126 -54 28 -194 172 -226 232 -6 12 -15 25 -18 28 -4 3 -21 28 -39 55
-17 28 -36 55 -42 62 -5 7 -10 15 -10 19 0 3 -9 18 -19 33 -11 15 -34 54 -52
86 -17 33 -37 67 -43 75 -17 23 -32 51 -127 237 -90 175 -93 186 -72 243 3 8
8 23 9 33 2 9 13 45 25 80 12 34 22 67 23 72 2 6 9 30 16 55 18 61 18 60 29
100 40 147 63 227 68 240 8 19 7 17 17 65 4 22 12 46 18 53 6 6 8 12 5 12 -2
0 9 48 25 108 16 59 33 123 38 142 4 19 15 64 25 100 9 36 19 74 22 85 5 22 5
24 21 80 6 22 13 51 16 65 3 14 21 90 41 170 35 145 94 392 100 420 2 8 4 15
5 15 1 0 3 9 5 20 3 27 14 77 41 188 11 46 15 65 20 97 3 19 8 38 10 41 2 3 6
21 9 40 3 19 8 42 11 51 3 9 7 25 9 35 5 26 46 225 50 243 2 8 4 15 5 15 1 0
3 13 5 28 2 16 11 61 20 100 9 40 18 83 21 97 3 24 7 44 19 100 10 45 15 74
21 110 3 19 7 37 9 40 2 3 6 24 9 46 4 22 9 51 12 64 2 14 11 61 19 104 8 43
17 86 19 95 3 9 8 34 11 56 3 23 8 52 11 65 8 40 16 93 17 113 1 9 4 17 7 17
3 0 5 10 6 23 0 12 4 37 7 55 4 17 9 44 11 60 3 15 12 70 21 122 9 52 18 106
20 120 17 104 27 170 30 200 3 19 6 44 9 56 2 12 7 45 11 75 4 30 8 56 10 59
2 3 6 32 9 65 4 33 8 67 11 75 2 8 7 40 10 70 3 30 8 68 10 85 2 16 7 52 10
80 4 27 9 64 11 80 2 17 6 50 8 75 11 109 17 167 21 200 3 19 7 69 10 110 4
41 9 102 11 135 7 84 8 470 1 526 -10 89 -31 164 -59 212 -15 26 -28 52 -28
57 0 6 -4 10 -8 10 -4 0 -15 12 -24 28 -21 33 -111 126 -164 168 l-39 31 40
18 c22 9 72 28 110 41 39 14 77 28 85 31 8 4 18 7 23 8 4 2 8 3 10 5 1 1 9 3
17 5 8 2 47 13 85 25 275 85 549 120 760 95 145 -17 247 -8 365 31 165 55 309
173 373 306 40 84 54 131 53 176 -1 18 2 32 5 32 3 0 4 12 2 28 -10 109 -32
177 -79 248 -33 49 -107 124 -124 124 -5 0 -10 3 -12 8 -5 11 -106 57 -168 77
-30 10 -57 19 -59 21 -2 2 -5 27 -7 55 -7 109 -57 263 -104 323 -18 24 -101
107 -122 123 -127 97 -448 131 -723 78 -16 -3 -75 -22 -130 -41 -55 -19 -106
-35 -112 -36 -7 -1 -13 -5 -13 -8 0 -4 -15 -14 -32 -21 -113 -45 -282 -173
-421 -316 -34 -35 -65 -63 -70 -63 -4 0 -6 4 -3 8 9 15 20 81 31 192 4 36 9
67 10 70 6 10 19 216 19 305 0 88 -8 195 -18 245 -3 14 -8 36 -11 50 -3 14 -7
34 -10 45 -15 74 -71 195 -122 265 -35 47 -141 148 -164 155 -11 4 -19 10 -19
14 0 4 -18 14 -40 21 -22 7 -40 16 -40 19 0 4 -30 14 -67 24 -38 10 -77 22
-88 26 -11 5 -81 9 -155 9 -119 2 -143 -1 -200 -22z"/>
</g>
</svg>
