<svg xmlns="http://www.w3.org/2000/svg" viewBox="0 0 26 30">
<defs>
<style>.cls-1{fill:#f4f2dd;}.cls-2{fill:#ee9022;}</style>
</defs>
<g id="Layer_2" data-name="Layer 2">
<g id="Layer_1-2" data-name="Layer 1">
<path class="cls-1" d="M18,8.26l-3-2.19a3.81,3.81,0,0,1-.9-1l-.42-.71s-.07-.11,0-.11H14.9a.57.57,0,0,0,.56-.57V.56A.56.56,0,0,0,14.9,0H4a.57.57,0,0,0-.57.56V3.7A.58.58,0,0,0,4,4.27H5.21c.13,0,.06.12.06.12l-.42.7a3.81,3.81,0,0,1-.9,1l-3,2.19A2.4,2.4,0,0,0,0,10V22.47C0,24.79,4.75,26,9.43,26a21.06,21.06,0,0,0,6.44-.9c2.49-.83,3-1.91,3-2.67V10A2.4,2.4,0,0,0,18,8.26Zm-.31,14.17c0,.36-.57,1-2.17,1.52a19.85,19.85,0,0,1-6.06.83,20.07,20.07,0,0,1-6-.82c-1.59-.53-2.15-1.14-2.15-1.5V10a.85.85,0,0,1,.4-.79L4.67,7.06A5.46,5.46,0,0,0,5.9,5.71l.72-1.22A.47.47,0,0,1,7,4.26h4.86a.45.45,0,0,1,.37.19L13,5.71a5.31,5.31,0,0,0,1.24,1.35l3,2.19a.78.78,0,0,1,.4.79V22.43Z"/>
<path class="cls-1" d="M14.55,20.05H4.33A1.07,1.07,0,0,1,3.26,19V13.55a1.07,1.07,0,0,1,1.07-1.07H14.55a1.09,1.09,0,0,1,1.07,1.07V19A1.07,1.07,0,0,1,14.55,20.05ZM4.35,19H14.53V13.57H4.35Z"/>
<path class="cls-2" d="M16.6,22l2.17,2.17a1.38,1.38,0,0,0,0,1.61l4,4c.5.5,1.58.23,2.42-.61s1.11-1.92.61-2.42l-4-4a1.38,1.38,0,0,0-1.61,0L18,20.6ZM12.44,9a7.44,7.44,0,1,0,7.43,7.44A7.44,7.44,0,0,0,12.44,9Zm0,13.12a5.69,5.69,0,1,1,5.68-5.68A5.68,5.68,0,0,1,12.44,22.12Z"/>
</g>
</g>
</svg>